<svg width="85" height="92" viewBox="0 0 85 92" fill="none" xmlns="http://www.w3.org/2000/svg">
<g filter="url(#filter0_d_1303_70)">
<path d="M45 64.0876L60.5455 49L80.8901 68.7455L65.4545 83.9398L45 64.0876Z" fill="url(#paint0_linear_1303_70)"/>
<path d="M45.0154 0H67C67 21.8246 67 35.2328 67 55C67 57.7525 63 53.5985 63 56.6375L45.0154 64.0114V64V0Z" fill="url(#paint1_linear_1303_70)"/>
<path d="M40 64.0118L24.4545 48.9242L4.10992 68.6697L19.5455 83.864L40 64.0118Z" fill="url(#paint2_linear_1303_70)"/>
<path d="M39.9836 0H17.999C17.999 21.8246 17.999 35.2328 17.999 55C17.999 57.7525 21.999 53.5985 21.999 56.6375L39.9836 64.0114V64V0Z" fill="url(#paint3_linear_1303_70)"/>
</g>
<defs>
<filter id="filter0_d_1303_70" x="0.109863" y="0" width="84.7803" height="91.9398" filterUnits="userSpaceOnUse" color-interpolation-filters="sRGB">
<feFlood flood-opacity="0" result="BackgroundImageFix"/>
<feColorMatrix in="SourceAlpha" type="matrix" values="0 0 0 0 0 0 0 0 0 0 0 0 0 0 0 0 0 0 127 0" result="hardAlpha"/>
<feOffset dy="4"/>
<feGaussianBlur stdDeviation="2"/>
<feComposite in2="hardAlpha" operator="out"/>
<feColorMatrix type="matrix" values="0 0 0 0 0.247059 0 0 0 0 0.392157 0 0 0 0 0.913725 0 0 0 0.21 0"/>
<feBlend mode="normal" in2="BackgroundImageFix" result="effect1_dropShadow_1303_70"/>
<feBlend mode="normal" in="SourceGraphic" in2="effect1_dropShadow_1303_70" result="shape"/>
</filter>
<linearGradient id="paint0_linear_1303_70" x1="61.001" y1="57.0758" x2="96.4369" y2="92.6352" gradientUnits="userSpaceOnUse">
<stop offset="0.0668417" stop-color="#FF004D"/>
<stop offset="0.0826355" stop-color="#FF004D"/>
<stop offset="1" stop-color="#3F64E9"/>
</linearGradient>
<linearGradient id="paint1_linear_1303_70" x1="65.9899" y1="-7.00018" x2="65.9899" y2="57.0112" gradientUnits="userSpaceOnUse">
<stop stop-color="#3F64E9"/>
<stop offset="1" stop-color="#FF004D"/>
</linearGradient>
<linearGradient id="paint2_linear_1303_70" x1="23.999" y1="57" x2="-11.4369" y2="92.5594" gradientUnits="userSpaceOnUse">
<stop offset="0.0668417" stop-color="#FF004D"/>
<stop offset="0.0826355" stop-color="#FF004D"/>
<stop offset="1" stop-color="#3F64E9"/>
</linearGradient>
<linearGradient id="paint3_linear_1303_70" x1="19.0092" y1="-7.00018" x2="19.0092" y2="57.0112" gradientUnits="userSpaceOnUse">
<stop stop-color="#3F64E9"/>
<stop offset="1" stop-color="#FF004D"/>
</linearGradient>
</defs>
</svg>
